<mxfile host="app.diagrams.net" agent="Mozilla/5.0 (Windows NT 10.0; Win64; x64) AppleWebKit/537.36 (KHTML, like Gecko) Chrome/141.0.0.0 Safari/537.36" version="28.2.8">
  <diagram name="Página-1" id="uEp33eRQ2WgQRV8aF9Wt">
    <mxGraphModel dx="2430" dy="1980" grid="1" gridSize="10" guides="1" tooltips="1" connect="1" arrows="1" fold="1" page="1" pageScale="1" pageWidth="827" pageHeight="1169" math="0" shadow="0">
      <root>
        <mxCell id="0" />
        <mxCell id="1" parent="0" />
        <mxCell id="mjRh040oEICSObT8HiUl-1" value="Pessoa" style="whiteSpace=wrap;html=1;align=center;" vertex="1" parent="1">
          <mxGeometry x="110" y="210" width="100" height="40" as="geometry" />
        </mxCell>
        <mxCell id="mjRh040oEICSObT8HiUl-2" value="Compra" style="shape=rhombus;perimeter=rhombusPerimeter;whiteSpace=wrap;html=1;align=center;" vertex="1" parent="1">
          <mxGeometry x="340" y="200" width="120" height="60" as="geometry" />
        </mxCell>
        <mxCell id="mjRh040oEICSObT8HiUl-3" value="Produto/Serviço" style="whiteSpace=wrap;html=1;align=center;" vertex="1" parent="1">
          <mxGeometry x="1011" y="210" width="100" height="40" as="geometry" />
        </mxCell>
        <mxCell id="mjRh040oEICSObT8HiUl-4" value="Pessoa Física" style="whiteSpace=wrap;html=1;align=center;" vertex="1" parent="1">
          <mxGeometry x="40" y="410" width="100" height="40" as="geometry" />
        </mxCell>
        <mxCell id="mjRh040oEICSObT8HiUl-5" value="Pessoa Jurídica" style="whiteSpace=wrap;html=1;align=center;" vertex="1" parent="1">
          <mxGeometry x="250" y="400" width="100" height="40" as="geometry" />
        </mxCell>
        <mxCell id="mjRh040oEICSObT8HiUl-6" value="d" style="ellipse;whiteSpace=wrap;html=1;aspect=fixed;" vertex="1" parent="1">
          <mxGeometry x="140" y="330" width="40" height="40" as="geometry" />
        </mxCell>
        <mxCell id="mjRh040oEICSObT8HiUl-7" value="" style="endArrow=none;html=1;rounded=0;shape=link;" edge="1" parent="1" source="mjRh040oEICSObT8HiUl-6" target="mjRh040oEICSObT8HiUl-1">
          <mxGeometry width="50" height="50" relative="1" as="geometry">
            <mxPoint x="340" y="300" as="sourcePoint" />
            <mxPoint x="390" y="250" as="targetPoint" />
          </mxGeometry>
        </mxCell>
        <mxCell id="mjRh040oEICSObT8HiUl-8" value="" style="endArrow=none;html=1;rounded=0;" edge="1" parent="1" source="mjRh040oEICSObT8HiUl-1" target="mjRh040oEICSObT8HiUl-2">
          <mxGeometry relative="1" as="geometry">
            <mxPoint x="280" y="280" as="sourcePoint" />
            <mxPoint x="440" y="280" as="targetPoint" />
          </mxGeometry>
        </mxCell>
        <mxCell id="mjRh040oEICSObT8HiUl-10" value="N" style="text;html=1;align=center;verticalAlign=middle;resizable=0;points=[];autosize=1;strokeColor=none;fillColor=none;" vertex="1" parent="1">
          <mxGeometry x="455" y="198" width="30" height="30" as="geometry" />
        </mxCell>
        <mxCell id="mjRh040oEICSObT8HiUl-11" value="1" style="text;html=1;align=center;verticalAlign=middle;resizable=0;points=[];autosize=1;strokeColor=none;fillColor=none;" vertex="1" parent="1">
          <mxGeometry x="315" y="198" width="30" height="30" as="geometry" />
        </mxCell>
        <mxCell id="mjRh040oEICSObT8HiUl-12" value="" style="endArrow=none;html=1;rounded=0;" edge="1" parent="1" source="mjRh040oEICSObT8HiUl-6" target="mjRh040oEICSObT8HiUl-5">
          <mxGeometry relative="1" as="geometry">
            <mxPoint x="390" y="320" as="sourcePoint" />
            <mxPoint x="550" y="320" as="targetPoint" />
          </mxGeometry>
        </mxCell>
        <mxCell id="mjRh040oEICSObT8HiUl-13" value="" style="endArrow=none;html=1;rounded=0;" edge="1" parent="1" source="mjRh040oEICSObT8HiUl-6" target="mjRh040oEICSObT8HiUl-4">
          <mxGeometry relative="1" as="geometry">
            <mxPoint x="170" y="350" as="sourcePoint" />
            <mxPoint x="299" y="385" as="targetPoint" />
          </mxGeometry>
        </mxCell>
        <mxCell id="mjRh040oEICSObT8HiUl-14" value="Nome" style="ellipse;whiteSpace=wrap;html=1;align=center;" vertex="1" parent="1">
          <mxGeometry x="-40" y="220" width="100" height="40" as="geometry" />
        </mxCell>
        <mxCell id="mjRh040oEICSObT8HiUl-15" value="Email" style="ellipse;whiteSpace=wrap;html=1;align=center;" vertex="1" parent="1">
          <mxGeometry x="-30" y="110" width="100" height="40" as="geometry" />
        </mxCell>
        <mxCell id="mjRh040oEICSObT8HiUl-16" value="Endereco" style="ellipse;whiteSpace=wrap;html=1;align=center;" vertex="1" parent="1">
          <mxGeometry x="110" y="-40" width="100" height="40" as="geometry" />
        </mxCell>
        <mxCell id="mjRh040oEICSObT8HiUl-17" value="CEP" style="ellipse;whiteSpace=wrap;html=1;align=center;" vertex="1" parent="1">
          <mxGeometry x="220" y="-20" width="100" height="40" as="geometry" />
        </mxCell>
        <mxCell id="mjRh040oEICSObT8HiUl-18" value="Complemento" style="ellipse;whiteSpace=wrap;html=1;align=center;" vertex="1" parent="1">
          <mxGeometry x="230" y="-70" width="100" height="40" as="geometry" />
        </mxCell>
        <mxCell id="mjRh040oEICSObT8HiUl-19" value="Cidade" style="ellipse;whiteSpace=wrap;html=1;align=center;" vertex="1" parent="1">
          <mxGeometry x="180" y="-120" width="100" height="40" as="geometry" />
        </mxCell>
        <mxCell id="mjRh040oEICSObT8HiUl-20" value="Estado" style="ellipse;whiteSpace=wrap;html=1;align=center;" vertex="1" parent="1">
          <mxGeometry x="90" y="-140" width="100" height="40" as="geometry" />
        </mxCell>
        <mxCell id="mjRh040oEICSObT8HiUl-21" value="Rua" style="ellipse;whiteSpace=wrap;html=1;align=center;" vertex="1" parent="1">
          <mxGeometry x="10" y="-110" width="100" height="40" as="geometry" />
        </mxCell>
        <mxCell id="mjRh040oEICSObT8HiUl-22" value="" style="endArrow=none;html=1;rounded=0;" edge="1" parent="1" source="mjRh040oEICSObT8HiUl-16" target="mjRh040oEICSObT8HiUl-17">
          <mxGeometry relative="1" as="geometry">
            <mxPoint x="250" y="150" as="sourcePoint" />
            <mxPoint x="380" y="150" as="targetPoint" />
          </mxGeometry>
        </mxCell>
        <mxCell id="mjRh040oEICSObT8HiUl-23" value="" style="endArrow=none;html=1;rounded=0;" edge="1" parent="1" source="mjRh040oEICSObT8HiUl-18" target="mjRh040oEICSObT8HiUl-16">
          <mxGeometry relative="1" as="geometry">
            <mxPoint x="280" as="sourcePoint" />
            <mxPoint x="410" as="targetPoint" />
          </mxGeometry>
        </mxCell>
        <mxCell id="mjRh040oEICSObT8HiUl-24" value="" style="endArrow=none;html=1;rounded=0;" edge="1" parent="1" source="mjRh040oEICSObT8HiUl-16" target="mjRh040oEICSObT8HiUl-19">
          <mxGeometry relative="1" as="geometry">
            <mxPoint x="170" y="20" as="sourcePoint" />
            <mxPoint x="300" y="20" as="targetPoint" />
          </mxGeometry>
        </mxCell>
        <mxCell id="mjRh040oEICSObT8HiUl-25" value="" style="endArrow=none;html=1;rounded=0;" edge="1" parent="1" source="mjRh040oEICSObT8HiUl-16" target="mjRh040oEICSObT8HiUl-20">
          <mxGeometry relative="1" as="geometry">
            <mxPoint x="130" y="-40" as="sourcePoint" />
            <mxPoint x="260" y="-40" as="targetPoint" />
          </mxGeometry>
        </mxCell>
        <mxCell id="mjRh040oEICSObT8HiUl-26" value="" style="endArrow=none;html=1;rounded=0;" edge="1" parent="1" source="mjRh040oEICSObT8HiUl-21" target="mjRh040oEICSObT8HiUl-16">
          <mxGeometry relative="1" as="geometry">
            <mxPoint x="130" y="-20" as="sourcePoint" />
            <mxPoint x="260" y="-20" as="targetPoint" />
          </mxGeometry>
        </mxCell>
        <mxCell id="mjRh040oEICSObT8HiUl-27" value="" style="endArrow=none;html=1;rounded=0;" edge="1" parent="1" source="mjRh040oEICSObT8HiUl-1" target="mjRh040oEICSObT8HiUl-16">
          <mxGeometry relative="1" as="geometry">
            <mxPoint x="170" y="160" as="sourcePoint" />
            <mxPoint x="300" y="160" as="targetPoint" />
          </mxGeometry>
        </mxCell>
        <mxCell id="mjRh040oEICSObT8HiUl-28" value="" style="endArrow=none;html=1;rounded=0;" edge="1" parent="1" source="mjRh040oEICSObT8HiUl-15" target="mjRh040oEICSObT8HiUl-1">
          <mxGeometry relative="1" as="geometry">
            <mxPoint x="200" y="170" as="sourcePoint" />
            <mxPoint x="330" y="170" as="targetPoint" />
          </mxGeometry>
        </mxCell>
        <mxCell id="mjRh040oEICSObT8HiUl-29" value="" style="endArrow=none;html=1;rounded=0;" edge="1" parent="1" source="mjRh040oEICSObT8HiUl-73" target="mjRh040oEICSObT8HiUl-1">
          <mxGeometry relative="1" as="geometry">
            <mxPoint x="48.41106397986891" y="192.8036879932897" as="sourcePoint" />
            <mxPoint x="270" y="230" as="targetPoint" />
          </mxGeometry>
        </mxCell>
        <mxCell id="mjRh040oEICSObT8HiUl-30" value="" style="endArrow=none;html=1;rounded=0;" edge="1" parent="1" source="mjRh040oEICSObT8HiUl-14" target="mjRh040oEICSObT8HiUl-1">
          <mxGeometry relative="1" as="geometry">
            <mxPoint x="140" y="220" as="sourcePoint" />
            <mxPoint x="270" y="220" as="targetPoint" />
          </mxGeometry>
        </mxCell>
        <mxCell id="mjRh040oEICSObT8HiUl-31" value="Produtos" style="whiteSpace=wrap;html=1;align=center;" vertex="1" parent="1">
          <mxGeometry x="920" y="410" width="100" height="40" as="geometry" />
        </mxCell>
        <mxCell id="mjRh040oEICSObT8HiUl-32" value="d" style="ellipse;whiteSpace=wrap;html=1;aspect=fixed;" vertex="1" parent="1">
          <mxGeometry x="1040" y="300" width="40" height="40" as="geometry" />
        </mxCell>
        <mxCell id="mjRh040oEICSObT8HiUl-33" value="" style="endArrow=none;html=1;rounded=0;" edge="1" parent="1" source="mjRh040oEICSObT8HiUl-3" target="mjRh040oEICSObT8HiUl-32">
          <mxGeometry relative="1" as="geometry">
            <mxPoint x="600" y="220" as="sourcePoint" />
            <mxPoint x="820" y="220" as="targetPoint" />
          </mxGeometry>
        </mxCell>
        <mxCell id="mjRh040oEICSObT8HiUl-34" value="" style="endArrow=none;html=1;rounded=0;" edge="1" parent="1" source="mjRh040oEICSObT8HiUl-31" target="mjRh040oEICSObT8HiUl-32">
          <mxGeometry relative="1" as="geometry">
            <mxPoint x="980" y="320" as="sourcePoint" />
            <mxPoint x="1200" y="320" as="targetPoint" />
          </mxGeometry>
        </mxCell>
        <mxCell id="mjRh040oEICSObT8HiUl-35" value="" style="endArrow=none;html=1;rounded=0;" edge="1" parent="1" source="mjRh040oEICSObT8HiUl-32" target="mjRh040oEICSObT8HiUl-36">
          <mxGeometry relative="1" as="geometry">
            <mxPoint x="1090" y="437" as="sourcePoint" />
            <mxPoint x="1142" y="390" as="targetPoint" />
          </mxGeometry>
        </mxCell>
        <mxCell id="mjRh040oEICSObT8HiUl-36" value="Serviços" style="whiteSpace=wrap;html=1;align=center;" vertex="1" parent="1">
          <mxGeometry x="1150" y="400" width="100" height="40" as="geometry" />
        </mxCell>
        <mxCell id="mjRh040oEICSObT8HiUl-37" value="Tipo" style="ellipse;whiteSpace=wrap;html=1;align=center;" vertex="1" parent="1">
          <mxGeometry x="1300" y="450" width="100" height="40" as="geometry" />
        </mxCell>
        <mxCell id="mjRh040oEICSObT8HiUl-38" value="Descrição" style="ellipse;whiteSpace=wrap;html=1;align=center;" vertex="1" parent="1">
          <mxGeometry x="1280" y="500" width="100" height="40" as="geometry" />
        </mxCell>
        <mxCell id="mjRh040oEICSObT8HiUl-39" value="Preço" style="ellipse;whiteSpace=wrap;html=1;align=center;" vertex="1" parent="1">
          <mxGeometry x="1170" y="510" width="100" height="40" as="geometry" />
        </mxCell>
        <mxCell id="mjRh040oEICSObT8HiUl-40" value="" style="endArrow=none;html=1;rounded=0;" edge="1" parent="1" source="mjRh040oEICSObT8HiUl-36" target="mjRh040oEICSObT8HiUl-37">
          <mxGeometry relative="1" as="geometry">
            <mxPoint x="1140" y="370" as="sourcePoint" />
            <mxPoint x="1236" y="438" as="targetPoint" />
          </mxGeometry>
        </mxCell>
        <mxCell id="mjRh040oEICSObT8HiUl-41" value="" style="endArrow=none;html=1;rounded=0;" edge="1" parent="1" source="mjRh040oEICSObT8HiUl-36" target="mjRh040oEICSObT8HiUl-38">
          <mxGeometry relative="1" as="geometry">
            <mxPoint x="1230" y="420" as="sourcePoint" />
            <mxPoint x="1298" y="436" as="targetPoint" />
          </mxGeometry>
        </mxCell>
        <mxCell id="mjRh040oEICSObT8HiUl-42" value="" style="endArrow=none;html=1;rounded=0;" edge="1" parent="1" source="mjRh040oEICSObT8HiUl-36" target="mjRh040oEICSObT8HiUl-39">
          <mxGeometry relative="1" as="geometry">
            <mxPoint x="1210" y="490" as="sourcePoint" />
            <mxPoint x="1291" y="552" as="targetPoint" />
          </mxGeometry>
        </mxCell>
        <mxCell id="mjRh040oEICSObT8HiUl-43" value="Reajuste" style="ellipse;whiteSpace=wrap;html=1;align=center;" vertex="1" parent="1">
          <mxGeometry x="870" y="350" width="100" height="40" as="geometry" />
        </mxCell>
        <mxCell id="mjRh040oEICSObT8HiUl-44" value="Estoque Atual" style="ellipse;whiteSpace=wrap;html=1;align=center;" vertex="1" parent="1">
          <mxGeometry x="780" y="380" width="100" height="40" as="geometry" />
        </mxCell>
        <mxCell id="mjRh040oEICSObT8HiUl-45" value="Estoque minimo" style="ellipse;whiteSpace=wrap;html=1;align=center;" vertex="1" parent="1">
          <mxGeometry x="770" y="440" width="100" height="40" as="geometry" />
        </mxCell>
        <mxCell id="mjRh040oEICSObT8HiUl-46" value="Validade" style="ellipse;whiteSpace=wrap;html=1;align=center;" vertex="1" parent="1">
          <mxGeometry x="1000" y="520" width="100" height="40" as="geometry" />
        </mxCell>
        <mxCell id="mjRh040oEICSObT8HiUl-47" value="Cod. Barras" style="ellipse;whiteSpace=wrap;html=1;align=center;" vertex="1" parent="1">
          <mxGeometry x="770" y="490" width="100" height="40" as="geometry" />
        </mxCell>
        <mxCell id="mjRh040oEICSObT8HiUl-49" value="Preço de compra" style="ellipse;whiteSpace=wrap;html=1;align=center;" vertex="1" parent="1">
          <mxGeometry x="780" y="530" width="100" height="40" as="geometry" />
        </mxCell>
        <mxCell id="mjRh040oEICSObT8HiUl-50" value="Nome" style="ellipse;whiteSpace=wrap;html=1;align=center;" vertex="1" parent="1">
          <mxGeometry x="1141" y="210" width="100" height="40" as="geometry" />
        </mxCell>
        <mxCell id="mjRh040oEICSObT8HiUl-51" value="" style="endArrow=none;html=1;rounded=0;" edge="1" parent="1" source="mjRh040oEICSObT8HiUl-50" target="mjRh040oEICSObT8HiUl-3">
          <mxGeometry relative="1" as="geometry">
            <mxPoint x="1091" y="340" as="sourcePoint" />
            <mxPoint x="1187" y="408" as="targetPoint" />
          </mxGeometry>
        </mxCell>
        <mxCell id="mjRh040oEICSObT8HiUl-52" value="" style="endArrow=none;html=1;rounded=0;" edge="1" parent="1" source="mjRh040oEICSObT8HiUl-31" target="mjRh040oEICSObT8HiUl-43">
          <mxGeometry relative="1" as="geometry">
            <mxPoint x="1194" y="180" as="sourcePoint" />
            <mxPoint x="1140" y="205" as="targetPoint" />
          </mxGeometry>
        </mxCell>
        <mxCell id="mjRh040oEICSObT8HiUl-53" value="" style="endArrow=none;html=1;rounded=0;" edge="1" parent="1" source="mjRh040oEICSObT8HiUl-31" target="mjRh040oEICSObT8HiUl-44">
          <mxGeometry relative="1" as="geometry">
            <mxPoint x="1024" y="380" as="sourcePoint" />
            <mxPoint x="970" y="405" as="targetPoint" />
          </mxGeometry>
        </mxCell>
        <mxCell id="mjRh040oEICSObT8HiUl-54" value="" style="endArrow=none;html=1;rounded=0;" edge="1" parent="1" source="mjRh040oEICSObT8HiUl-31" target="mjRh040oEICSObT8HiUl-45">
          <mxGeometry relative="1" as="geometry">
            <mxPoint x="1024" y="440" as="sourcePoint" />
            <mxPoint x="970" y="465" as="targetPoint" />
          </mxGeometry>
        </mxCell>
        <mxCell id="mjRh040oEICSObT8HiUl-55" value="" style="endArrow=none;html=1;rounded=0;" edge="1" parent="1" source="mjRh040oEICSObT8HiUl-31" target="mjRh040oEICSObT8HiUl-47">
          <mxGeometry relative="1" as="geometry">
            <mxPoint x="1034" y="480" as="sourcePoint" />
            <mxPoint x="980" y="505" as="targetPoint" />
          </mxGeometry>
        </mxCell>
        <mxCell id="mjRh040oEICSObT8HiUl-56" value="" style="endArrow=none;html=1;rounded=0;" edge="1" parent="1" source="mjRh040oEICSObT8HiUl-31" target="mjRh040oEICSObT8HiUl-46">
          <mxGeometry relative="1" as="geometry">
            <mxPoint x="1024" y="430" as="sourcePoint" />
            <mxPoint x="970" y="455" as="targetPoint" />
          </mxGeometry>
        </mxCell>
        <mxCell id="mjRh040oEICSObT8HiUl-57" value="" style="endArrow=none;html=1;rounded=0;" edge="1" parent="1" source="mjRh040oEICSObT8HiUl-31" target="mjRh040oEICSObT8HiUl-94">
          <mxGeometry relative="1" as="geometry">
            <mxPoint x="1072" y="500" as="sourcePoint" />
            <mxPoint x="926.5624539300402" y="560.1730115305168" as="targetPoint" />
          </mxGeometry>
        </mxCell>
        <mxCell id="mjRh040oEICSObT8HiUl-58" value="" style="endArrow=none;html=1;rounded=0;" edge="1" parent="1" source="mjRh040oEICSObT8HiUl-31" target="mjRh040oEICSObT8HiUl-49">
          <mxGeometry relative="1" as="geometry">
            <mxPoint x="990" y="570" as="sourcePoint" />
            <mxPoint x="1005" y="690" as="targetPoint" />
          </mxGeometry>
        </mxCell>
        <mxCell id="mjRh040oEICSObT8HiUl-59" value="Data" style="ellipse;whiteSpace=wrap;html=1;align=center;" vertex="1" parent="1">
          <mxGeometry x="485" y="118" width="100" height="40" as="geometry" />
        </mxCell>
        <mxCell id="mjRh040oEICSObT8HiUl-61" value="&lt;u&gt;CPF&lt;/u&gt;" style="ellipse;whiteSpace=wrap;html=1;align=center;" vertex="1" parent="1">
          <mxGeometry x="40" y="520" width="100" height="40" as="geometry" />
        </mxCell>
        <mxCell id="mjRh040oEICSObT8HiUl-62" value="CNPJ" style="ellipse;whiteSpace=wrap;html=1;align=center;fontStyle=4" vertex="1" parent="1">
          <mxGeometry x="190" y="490" width="100" height="40" as="geometry" />
        </mxCell>
        <mxCell id="mjRh040oEICSObT8HiUl-63" value="&lt;u&gt;Id&lt;/u&gt;" style="ellipse;whiteSpace=wrap;html=1;align=center;" vertex="1" parent="1">
          <mxGeometry x="-30" y="280" width="100" height="40" as="geometry" />
        </mxCell>
        <mxCell id="mjRh040oEICSObT8HiUl-64" value="" style="endArrow=none;html=1;rounded=0;" edge="1" parent="1" source="mjRh040oEICSObT8HiUl-63" target="mjRh040oEICSObT8HiUl-1">
          <mxGeometry relative="1" as="geometry">
            <mxPoint x="80" y="234" as="sourcePoint" />
            <mxPoint x="131" y="230" as="targetPoint" />
          </mxGeometry>
        </mxCell>
        <mxCell id="mjRh040oEICSObT8HiUl-65" value="" style="endArrow=none;html=1;rounded=0;" edge="1" parent="1" source="mjRh040oEICSObT8HiUl-4" target="mjRh040oEICSObT8HiUl-61">
          <mxGeometry relative="1" as="geometry">
            <mxPoint x="100" y="324" as="sourcePoint" />
            <mxPoint x="151" y="320" as="targetPoint" />
          </mxGeometry>
        </mxCell>
        <mxCell id="mjRh040oEICSObT8HiUl-67" value="&lt;u&gt;Id&lt;/u&gt;" style="ellipse;whiteSpace=wrap;html=1;align=center;" vertex="1" parent="1">
          <mxGeometry x="1141" y="158" width="100" height="40" as="geometry" />
        </mxCell>
        <mxCell id="mjRh040oEICSObT8HiUl-68" value="" style="endArrow=none;html=1;rounded=0;" edge="1" parent="1" source="mjRh040oEICSObT8HiUl-67" target="mjRh040oEICSObT8HiUl-3">
          <mxGeometry relative="1" as="geometry">
            <mxPoint x="1185" y="190" as="sourcePoint" />
            <mxPoint x="1131" y="215" as="targetPoint" />
          </mxGeometry>
        </mxCell>
        <mxCell id="mjRh040oEICSObT8HiUl-69" value="" style="endArrow=none;html=1;rounded=0;" edge="1" parent="1" source="mjRh040oEICSObT8HiUl-91" target="mjRh040oEICSObT8HiUl-74">
          <mxGeometry relative="1" as="geometry">
            <mxPoint x="683.528578576264" y="129.83177533080402" as="sourcePoint" />
            <mxPoint x="800" y="215" as="targetPoint" />
          </mxGeometry>
        </mxCell>
        <mxCell id="mjRh040oEICSObT8HiUl-70" value="" style="endArrow=none;html=1;rounded=0;" edge="1" parent="1" source="mjRh040oEICSObT8HiUl-59" target="mjRh040oEICSObT8HiUl-74">
          <mxGeometry relative="1" as="geometry">
            <mxPoint x="444" y="220" as="sourcePoint" />
            <mxPoint x="390" y="245" as="targetPoint" />
          </mxGeometry>
        </mxCell>
        <mxCell id="mjRh040oEICSObT8HiUl-71" value="FormaPagamento" style="ellipse;whiteSpace=wrap;html=1;align=center;" vertex="1" parent="1">
          <mxGeometry x="650" y="78" width="110" height="40" as="geometry" />
        </mxCell>
        <mxCell id="mjRh040oEICSObT8HiUl-72" value="" style="endArrow=none;html=1;rounded=0;" edge="1" parent="1" source="mjRh040oEICSObT8HiUl-71" target="mjRh040oEICSObT8HiUl-74">
          <mxGeometry relative="1" as="geometry">
            <mxPoint x="452" y="150" as="sourcePoint" />
            <mxPoint x="420" y="225" as="targetPoint" />
          </mxGeometry>
        </mxCell>
        <mxCell id="mjRh040oEICSObT8HiUl-73" value="Telefone" style="ellipse;shape=doubleEllipse;margin=3;whiteSpace=wrap;html=1;align=center;" vertex="1" parent="1">
          <mxGeometry x="-50" y="170" width="100" height="40" as="geometry" />
        </mxCell>
        <mxCell id="mjRh040oEICSObT8HiUl-74" value="Pedido" style="whiteSpace=wrap;html=1;align=center;" vertex="1" parent="1">
          <mxGeometry x="600" y="210" width="100" height="40" as="geometry" />
        </mxCell>
        <mxCell id="mjRh040oEICSObT8HiUl-75" value="" style="endArrow=none;html=1;rounded=0;" edge="1" parent="1" source="mjRh040oEICSObT8HiUl-2" target="mjRh040oEICSObT8HiUl-74">
          <mxGeometry width="50" height="50" relative="1" as="geometry">
            <mxPoint x="450" y="290" as="sourcePoint" />
            <mxPoint x="500" y="240" as="targetPoint" />
          </mxGeometry>
        </mxCell>
        <mxCell id="mjRh040oEICSObT8HiUl-76" value="" style="endArrow=none;html=1;rounded=0;" edge="1" parent="1" source="mjRh040oEICSObT8HiUl-77" target="mjRh040oEICSObT8HiUl-3">
          <mxGeometry width="50" height="50" relative="1" as="geometry">
            <mxPoint x="910" y="270" as="sourcePoint" />
            <mxPoint x="680" y="300" as="targetPoint" />
          </mxGeometry>
        </mxCell>
        <mxCell id="mjRh040oEICSObT8HiUl-77" value="De" style="shape=rhombus;perimeter=rhombusPerimeter;whiteSpace=wrap;html=1;align=center;" vertex="1" parent="1">
          <mxGeometry x="780" y="200" width="120" height="60" as="geometry" />
        </mxCell>
        <mxCell id="mjRh040oEICSObT8HiUl-78" value="" style="endArrow=none;html=1;rounded=0;" edge="1" parent="1" source="mjRh040oEICSObT8HiUl-74" target="mjRh040oEICSObT8HiUl-77">
          <mxGeometry width="50" height="50" relative="1" as="geometry">
            <mxPoint x="780" y="310" as="sourcePoint" />
            <mxPoint x="891" y="310" as="targetPoint" />
          </mxGeometry>
        </mxCell>
        <mxCell id="mjRh040oEICSObT8HiUl-81" value="N" style="text;html=1;align=center;verticalAlign=middle;resizable=0;points=[];autosize=1;strokeColor=none;fillColor=none;" vertex="1" parent="1">
          <mxGeometry x="760" y="198" width="30" height="30" as="geometry" />
        </mxCell>
        <mxCell id="mjRh040oEICSObT8HiUl-82" value="N" style="text;html=1;align=center;verticalAlign=middle;resizable=0;points=[];autosize=1;strokeColor=none;fillColor=none;" vertex="1" parent="1">
          <mxGeometry x="890" y="200" width="30" height="30" as="geometry" />
        </mxCell>
        <mxCell id="mjRh040oEICSObT8HiUl-83" value="Número" style="ellipse;whiteSpace=wrap;html=1;align=center;" vertex="1" parent="1">
          <mxGeometry x="-10" y="-60" width="100" height="40" as="geometry" />
        </mxCell>
        <mxCell id="mjRh040oEICSObT8HiUl-84" value="" style="endArrow=none;html=1;rounded=0;" edge="1" parent="1" source="mjRh040oEICSObT8HiUl-83" target="mjRh040oEICSObT8HiUl-16">
          <mxGeometry relative="1" as="geometry">
            <mxPoint x="110" y="-40" as="sourcePoint" />
            <mxPoint x="139" y="-28" as="targetPoint" />
          </mxGeometry>
        </mxCell>
        <mxCell id="mjRh040oEICSObT8HiUl-85" value="Bairro" style="ellipse;whiteSpace=wrap;html=1;align=center;" vertex="1" parent="1">
          <mxGeometry x="-20" y="-10" width="100" height="40" as="geometry" />
        </mxCell>
        <mxCell id="mjRh040oEICSObT8HiUl-86" value="" style="endArrow=none;html=1;rounded=0;" edge="1" parent="1" source="mjRh040oEICSObT8HiUl-85" target="mjRh040oEICSObT8HiUl-16">
          <mxGeometry relative="1" as="geometry">
            <mxPoint x="100" y="-18" as="sourcePoint" />
            <mxPoint x="122" y="-20" as="targetPoint" />
          </mxGeometry>
        </mxCell>
        <mxCell id="mjRh040oEICSObT8HiUl-87" value="Razão social" style="ellipse;whiteSpace=wrap;html=1;align=center;" vertex="1" parent="1">
          <mxGeometry x="350" y="490" width="100" height="40" as="geometry" />
        </mxCell>
        <mxCell id="mjRh040oEICSObT8HiUl-89" value="" style="endArrow=none;html=1;rounded=0;" edge="1" parent="1" source="mjRh040oEICSObT8HiUl-5" target="mjRh040oEICSObT8HiUl-62">
          <mxGeometry relative="1" as="geometry">
            <mxPoint x="156" y="480" as="sourcePoint" />
            <mxPoint x="150" y="550" as="targetPoint" />
          </mxGeometry>
        </mxCell>
        <mxCell id="mjRh040oEICSObT8HiUl-90" value="" style="endArrow=none;html=1;rounded=0;" edge="1" parent="1" source="mjRh040oEICSObT8HiUl-5" target="mjRh040oEICSObT8HiUl-87">
          <mxGeometry relative="1" as="geometry">
            <mxPoint x="280" y="490" as="sourcePoint" />
            <mxPoint x="286" y="560" as="targetPoint" />
          </mxGeometry>
        </mxCell>
        <mxCell id="mjRh040oEICSObT8HiUl-91" value="Valor total" style="ellipse;whiteSpace=wrap;html=1;align=center;" vertex="1" parent="1">
          <mxGeometry x="540" y="78" width="100" height="40" as="geometry" />
        </mxCell>
        <mxCell id="mjRh040oEICSObT8HiUl-92" value="NúmeroParcelas" style="ellipse;whiteSpace=wrap;html=1;align=center;" vertex="1" parent="1">
          <mxGeometry x="725" y="118" width="100" height="40" as="geometry" />
        </mxCell>
        <mxCell id="mjRh040oEICSObT8HiUl-93" value="" style="endArrow=none;html=1;rounded=0;" edge="1" parent="1" source="mjRh040oEICSObT8HiUl-92" target="mjRh040oEICSObT8HiUl-74">
          <mxGeometry relative="1" as="geometry">
            <mxPoint x="754" y="140" as="sourcePoint" />
            <mxPoint x="700" y="221" as="targetPoint" />
          </mxGeometry>
        </mxCell>
        <mxCell id="mjRh040oEICSObT8HiUl-94" value="Preço de Venda" style="ellipse;whiteSpace=wrap;html=1;align=center;" vertex="1" parent="1">
          <mxGeometry x="1030" y="460" width="100" height="40" as="geometry" />
        </mxCell>
        <mxCell id="mjRh040oEICSObT8HiUl-95" value="Fornecedor" style="whiteSpace=wrap;html=1;align=center;" vertex="1" parent="1">
          <mxGeometry x="250" y="680" width="100" height="40" as="geometry" />
        </mxCell>
        <mxCell id="mjRh040oEICSObT8HiUl-96" value="Fornece" style="shape=rhombus;perimeter=rhombusPerimeter;whiteSpace=wrap;html=1;align=center;" vertex="1" parent="1">
          <mxGeometry x="915" y="670" width="120" height="60" as="geometry" />
        </mxCell>
        <mxCell id="mjRh040oEICSObT8HiUl-97" value="" style="endArrow=none;html=1;rounded=0;" edge="1" parent="1" source="mjRh040oEICSObT8HiUl-96" target="mjRh040oEICSObT8HiUl-31">
          <mxGeometry relative="1" as="geometry">
            <mxPoint x="860" y="570" as="sourcePoint" />
            <mxPoint x="1020" y="570" as="targetPoint" />
          </mxGeometry>
        </mxCell>
        <mxCell id="mjRh040oEICSObT8HiUl-98" value="" style="endArrow=none;html=1;rounded=0;" edge="1" parent="1" source="mjRh040oEICSObT8HiUl-95" target="mjRh040oEICSObT8HiUl-96">
          <mxGeometry relative="1" as="geometry">
            <mxPoint x="984" y="840" as="sourcePoint" />
            <mxPoint x="980" y="620" as="targetPoint" />
          </mxGeometry>
        </mxCell>
        <mxCell id="mjRh040oEICSObT8HiUl-101" value="o" style="ellipse;whiteSpace=wrap;html=1;aspect=fixed;" vertex="1" parent="1">
          <mxGeometry x="280" y="560" width="40" height="40" as="geometry" />
        </mxCell>
        <mxCell id="mjRh040oEICSObT8HiUl-102" value="" style="endArrow=none;html=1;rounded=0;" edge="1" parent="1" source="mjRh040oEICSObT8HiUl-5" target="mjRh040oEICSObT8HiUl-101">
          <mxGeometry relative="1" as="geometry">
            <mxPoint x="159" y="390" as="sourcePoint" />
            <mxPoint x="120" y="435" as="targetPoint" />
          </mxGeometry>
        </mxCell>
        <mxCell id="mjRh040oEICSObT8HiUl-103" value="" style="endArrow=none;html=1;rounded=0;" edge="1" parent="1" source="mjRh040oEICSObT8HiUl-101" target="mjRh040oEICSObT8HiUl-95">
          <mxGeometry relative="1" as="geometry">
            <mxPoint x="300" y="500" as="sourcePoint" />
            <mxPoint x="300" y="620" as="targetPoint" />
          </mxGeometry>
        </mxCell>
      </root>
    </mxGraphModel>
  </diagram>
</mxfile>
